<svg width="190" height="27" viewBox="0 0 190 27" fill="none" xmlns="http://www.w3.org/2000/svg">
<path d="M18.52 6.36V5.56C18.52 5.08 18.3333 4.70667 17.96 4.44C17.1867 3.72 16.16 3.36 14.88 3.36C13.12 3.36 11.84 3.97333 11.04 5.2C10.56 5.92 10.32 6.6 10.32 7.24C10.32 7.85333 10.4667 8.52 10.76 9.24C11.08 9.96 11.9467 11.2 13.36 12.96C14.8 14.72 15.6933 16.0533 16.04 16.96C16.3867 17.8667 16.56 18.6267 16.56 19.24C16.56 20.9467 15.8667 22.44 14.48 23.72C13.6 24.5467 12.56 25.1867 11.36 25.64C10.1867 26.12 8.89333 26.36 7.48 26.36C6.06667 26.36 4.65333 26 3.24 25.28C1.82667 24.56 0.946667 23.4667 0.6 22C0.546667 21.7067 0.52 21.3333 0.52 20.88C0.52 20.4 0.666667 19.7467 0.96 18.92C1.28 18.0933 1.77333 17.4267 2.44 16.92C2.46667 16.8933 2.52 16.92 2.6 17C2.76 17.1333 2.78667 17.2533 2.68 17.36C2.17333 17.9467 1.92 18.6133 1.92 19.36C1.92 20.3467 2.22667 21.2933 2.84 22.2C3.45333 23.0533 4.30667 23.76 5.4 24.32C6.6 24.9333 7.84 25.24 9.12 25.24C11.0133 25.24 12.4133 24.5467 13.32 23.16C13.8267 22.3333 14.08 21.48 14.08 20.6C14.08 19.6933 13.92 18.8 13.6 17.92C13.28 17.0133 12.6133 15.7333 11.6 14.08C10.6133 12.4 10.0667 11.4667 9.96 11.28C9.42667 10.2667 9.16 9.26667 9.16 8.28C9.16 7.26667 9.46667 6.32 10.08 5.44C10.72 4.56 11.5333 3.86667 12.52 3.36C13.6133 2.8 14.7467 2.52 15.92 2.52C17.5733 2.52 18.92 3.09333 19.96 4.24C20.0933 4.48 20.16 4.82666 20.16 5.28C20.16 5.70667 20.0667 6.08 19.88 6.4C19.1867 7.41333 18.7467 8.25333 18.56 8.92C18.1867 9.16 17.9333 9.2 17.8 9.04C18.28 8.08 18.52 7.18667 18.52 6.36ZM20.4069 20.24C20.0069 21.28 19.8069 22.2533 19.8069 23.16C19.8069 24.04 20.3535 24.48 21.4469 24.48C21.8469 24.48 22.3669 24.36 23.0069 24.12C24.0469 23.7733 25.1269 23.1067 26.2469 22.12C27.3669 21.1333 28.2869 20.1733 29.0069 19.24C29.0869 19.32 29.1269 19.4267 29.1269 19.56C29.1269 19.6933 29.0335 19.8933 28.8469 20.16C27.8602 21.52 26.6335 22.72 25.1669 23.76C23.7002 24.8 22.2069 25.32 20.6869 25.32C18.7135 25.32 17.7269 24.6 17.7269 23.16C17.7269 22.0133 18.3402 20.4267 19.5669 18.4C20.2602 17.3067 21.2469 16.2933 22.5269 15.36C23.8069 14.4 25.0335 13.92 26.2069 13.92C27.3802 13.92 27.9669 14.48 27.9669 15.6C27.9669 16.7733 27.5002 17.6667 26.5669 18.28C25.6602 18.8667 24.6202 19.3467 23.4469 19.72C22.3002 20.0667 21.2869 20.24 20.4069 20.24ZM20.7269 19.44C20.8869 19.44 21.1802 19.44 21.6069 19.44C22.0602 19.44 22.5935 19.3467 23.2069 19.16C24.7269 18.7067 25.7135 17.8533 26.1669 16.6C26.3002 16.2267 26.3669 15.88 26.3669 15.56C26.3669 15.2133 26.2602 14.9733 26.0469 14.84C25.8335 14.68 25.6469 14.6 25.4869 14.6C23.7535 14.6267 22.1669 16.24 20.7269 19.44ZM42.7278 0.479999C43.3945 0.479999 43.7278 0.906665 43.7278 1.76C43.7278 3.17333 42.5678 5.45333 40.2478 8.6C38.2745 11.3467 35.5278 14.3067 32.0078 17.48C31.3145 18.76 30.7945 20.1333 30.4478 21.6C30.3678 21.8933 30.3278 22.1733 30.3278 22.44C30.3278 23.48 30.8211 24 31.8078 24C31.9678 24 32.1411 23.9867 32.3278 23.96C33.4478 23.7467 35.2345 22.12 37.6878 19.08C37.7411 19.1333 37.7678 19.2533 37.7678 19.44C37.7678 19.6 37.4211 20.12 36.7278 21C36.0345 21.8533 35.5145 22.4533 35.1678 22.8C33.6478 24.32 32.2745 25.08 31.0478 25.08C29.6611 25.08 28.9678 24.4133 28.9678 23.08C28.9678 22.0133 29.3945 20.5467 30.2478 18.68L28.5678 20.52C28.3811 20.7867 28.2878 20.76 28.2878 20.44C28.2878 20.2267 28.3811 20 28.5678 19.76C28.7811 19.4933 29.1945 19 29.8078 18.28C30.4211 17.56 30.8745 17.0267 31.1678 16.68C31.5411 15.9867 32.3011 14.48 33.4478 12.16C35.8745 7.25333 37.6878 4 38.8878 2.4C39.1811 2.29333 39.7545 1.94667 40.6078 1.36C41.4878 0.773332 42.1945 0.479999 42.7278 0.479999ZM39.5678 8.2C41.4611 5.10667 42.4078 2.93333 42.4078 1.68C42.4078 1.36 42.2878 1.2 42.0478 1.2C41.1678 1.2 39.4345 3.52 36.8478 8.16C34.6611 12.1067 33.2745 14.68 32.6878 15.88C35.3278 13.6933 37.6211 11.1333 39.5678 8.2ZM42.3225 24.48C40.9892 25.3067 39.9892 25.4533 39.3225 24.92C38.9758 24.6267 38.8158 24.0933 38.8425 23.32C38.8425 21.0267 39.2425 18.8133 40.0425 16.68C39.6692 17.2133 39.0958 17.9867 38.3225 19C37.5492 19.9867 37.1492 20.4933 37.1225 20.52C36.9358 20.7867 36.8425 20.76 36.8425 20.44C36.8425 20.2267 36.9092 20.04 37.0425 19.88C38.5358 17.88 39.7758 16.1067 40.7625 14.56C41.7225 14.4267 42.3758 14.2 42.7225 13.88C42.8292 13.7733 42.9092 13.72 42.9625 13.72C43.0425 13.72 43.0825 13.7733 43.0825 13.88C43.0825 13.9867 43.0425 14.0933 42.9625 14.2C42.4825 14.92 41.9358 16.28 41.3225 18.28C40.7092 20.28 40.4025 21.76 40.4025 22.72C40.4025 23.6533 40.6292 24.12 41.0825 24.12C42.1492 24.12 43.5358 22.76 45.2425 20.04C46.4692 18.04 47.1092 16.4667 47.1625 15.32C47.1625 14.7067 47.0558 14.3333 46.8425 14.2C46.6292 14.12 46.5492 14.04 46.6025 13.96C46.6825 13.88 46.7625 13.84 46.8425 13.84C46.9225 13.84 47.0425 13.8667 47.2025 13.92C47.3625 13.9733 47.5092 14.0267 47.6425 14.08C48.0958 14.2933 48.3758 14.52 48.4825 14.76C48.5892 14.9733 48.6425 15.24 48.6425 15.56C48.6425 16.52 47.7892 18.12 46.0825 20.36C44.3758 22.6 43.1225 23.9733 42.3225 24.48ZM50.6803 20.24C50.2803 21.28 50.0803 22.2533 50.0803 23.16C50.0803 24.04 50.627 24.48 51.7203 24.48C52.1203 24.48 52.6403 24.36 53.2803 24.12C54.3203 23.7733 55.4003 23.1067 56.5203 22.12C57.6403 21.1333 58.5603 20.1733 59.2803 19.24C59.3603 19.32 59.4003 19.4267 59.4003 19.56C59.4003 19.6933 59.307 19.8933 59.1203 20.16C58.1336 21.52 56.907 22.72 55.4403 23.76C53.9736 24.8 52.4803 25.32 50.9603 25.32C48.987 25.32 48.0003 24.6 48.0003 23.16C48.0003 22.0133 48.6136 20.4267 49.8403 18.4C50.5336 17.3067 51.5203 16.2933 52.8003 15.36C54.0803 14.4 55.307 13.92 56.4803 13.92C57.6536 13.92 58.2403 14.48 58.2403 15.6C58.2403 16.7733 57.7736 17.6667 56.8403 18.28C55.9336 18.8667 54.8936 19.3467 53.7203 19.72C52.5736 20.0667 51.5603 20.24 50.6803 20.24ZM51.0003 19.44C51.1603 19.44 51.4536 19.44 51.8803 19.44C52.3336 19.44 52.867 19.3467 53.4803 19.16C55.0003 18.7067 55.987 17.8533 56.4403 16.6C56.5736 16.2267 56.6403 15.88 56.6403 15.56C56.6403 15.2133 56.5336 14.9733 56.3203 14.84C56.107 14.68 55.9203 14.6 55.7603 14.6C54.027 14.6267 52.4403 16.24 51.0003 19.44ZM80.7591 3.24L82.3591 3.2C83.2124 3.2 84.0924 3.34667 84.9991 3.64C86.7857 4.2 87.6791 5.52 87.6791 7.6C87.6791 9.06667 87.3457 10.2267 86.6791 11.08C86.0391 11.9333 85.2791 12.68 84.3991 13.32C83.5457 13.9333 82.3457 14.4267 80.7991 14.8C79.2524 15.1733 77.7457 15.4 76.2791 15.48C77.3724 17.9067 78.7591 20.16 80.4391 22.24C81.4524 23.4667 82.5457 24.08 83.7191 24.08C85.5057 24.08 87.5057 22.6267 89.7191 19.72C89.9324 19.4267 90.0391 19.44 90.0391 19.76C90.0391 19.9733 89.9591 20.1867 89.7991 20.4C87.1057 24.1067 84.8124 25.96 82.9191 25.96L81.5591 25.68C79.5324 24.8 77.3991 21.9067 75.1591 17C74.7057 16.0133 74.4657 15.4933 74.4391 15.44C74.9457 14.7467 75.3057 14.4 75.5191 14.4C75.7324 14.4 76.1857 14.4 76.8791 14.4C77.5991 14.4 78.2391 14.3867 78.7991 14.36C79.3591 14.3333 80.0524 14.24 80.8791 14.08C81.7057 13.92 82.3324 13.6667 82.7591 13.32C83.9057 12.4667 84.7724 11.1733 85.3591 9.44C85.5991 8.77333 85.7191 8.14667 85.7191 7.56C85.7191 6.94667 85.6124 6.36 85.3991 5.8C84.8657 4.49333 83.8257 3.84 82.2791 3.84C80.8124 3.84 79.8257 4.16 79.3191 4.8C78.8124 5.41333 78.2924 6.17333 77.7591 7.08C77.2524 7.96 76.8257 8.73333 76.4791 9.4C76.1324 10.04 75.6791 10.92 75.1191 12.04C74.5857 13.1333 74.2524 13.8133 74.1191 14.08C73.9857 14.3467 73.7857 14.7333 73.5191 15.24C73.2524 15.72 72.9857 16.2 72.7191 16.68C72.4524 17.16 72.1457 17.7333 71.7991 18.4C71.4524 19.0667 71.1457 19.6933 70.8791 20.28C70.6124 20.8667 70.3591 21.4267 70.1191 21.96C69.5857 23.16 69.4124 23.9333 69.5991 24.28C69.7057 24.52 69.5457 24.56 69.1191 24.4C69.0657 24.4 68.9857 24.3867 68.8791 24.36C68.7724 24.3067 68.6791 24.28 68.5991 24.28C68.5457 24.2533 68.4524 24.24 68.3191 24.24C68.2124 24.2133 68.1191 24.2 68.0391 24.2C67.7457 24.2 67.2524 24.4133 66.5591 24.84C65.5724 25.4533 64.9057 25.76 64.5591 25.76C64.2391 25.76 64.0791 25.68 64.0791 25.52C64.0791 25.4667 64.1057 25.4267 64.1591 25.4C65.2524 25.2133 66.1057 24.5733 66.7191 23.48C67.9191 21.4533 68.9591 19.6133 69.8391 17.96C70.7457 16.28 71.7191 14.4933 72.7591 12.6C73.7991 10.7067 74.5057 9.38667 74.8791 8.64C75.2524 7.89333 75.5857 7.21333 75.8791 6.6C76.1724 5.96 76.3724 5.54667 76.4791 5.36C76.8257 4.72 77.6124 4.18667 78.8391 3.76C78.4391 3.73333 77.7457 3.72 76.7591 3.72C75.7724 3.72 74.2657 3.90667 72.2391 4.28C69.4657 4.78667 68.0791 5.89333 68.0791 7.6C68.0791 8.24 68.2924 8.69333 68.7191 8.96C68.8524 9.01333 68.8391 9.09333 68.6791 9.2C68.5457 9.28 68.3991 9.28 68.2391 9.2C68.1057 9.09333 67.8657 8.78667 67.5191 8.28C66.9857 7.45333 66.7191 6.72 66.7191 6.08C66.7191 4.42667 68.2657 3.49333 71.3591 3.28C71.8657 3.25333 72.5991 3.24 73.5591 3.24L79.4791 3.2C79.9057 3.22667 80.3324 3.24 80.7591 3.24ZM91.4616 20.24C91.0616 21.28 90.8616 22.2533 90.8616 23.16C90.8616 24.04 91.4082 24.48 92.5016 24.48C92.9016 24.48 93.4216 24.36 94.0616 24.12C95.1016 23.7733 96.1816 23.1067 97.3016 22.12C98.4216 21.1333 99.3416 20.1733 100.062 19.24C100.142 19.32 100.182 19.4267 100.182 19.56C100.182 19.6933 100.088 19.8933 99.9016 20.16C98.9149 21.52 97.6882 22.72 96.2216 23.76C94.7549 24.8 93.2616 25.32 91.7416 25.32C89.7682 25.32 88.7816 24.6 88.7816 23.16C88.7816 22.0133 89.3949 20.4267 90.6216 18.4C91.3149 17.3067 92.3016 16.2933 93.5816 15.36C94.8616 14.4 96.0882 13.92 97.2616 13.92C98.4349 13.92 99.0216 14.48 99.0216 15.6C99.0216 16.7733 98.5549 17.6667 97.6216 18.28C96.7149 18.8667 95.6749 19.3467 94.5016 19.72C93.3549 20.0667 92.3416 20.24 91.4616 20.24ZM91.7816 19.44C91.9416 19.44 92.2349 19.44 92.6616 19.44C93.1149 19.44 93.6482 19.3467 94.2616 19.16C95.7816 18.7067 96.7682 17.8533 97.2216 16.6C97.3549 16.2267 97.4216 15.88 97.4216 15.56C97.4216 15.2133 97.3149 14.9733 97.1016 14.84C96.8882 14.68 96.7016 14.6 96.5416 14.6C94.8082 14.6267 93.2216 16.24 91.7816 19.44ZM106.863 17.64C106.756 17.64 106.729 17.5467 106.783 17.36C106.836 17.1733 106.863 16.9333 106.863 16.64C106.863 16.32 106.783 15.9733 106.623 15.6C106.356 14.88 105.916 14.52 105.303 14.52C104.716 14.52 104.236 14.7067 103.863 15.08C103.516 15.4267 103.342 15.7467 103.342 16.04C103.342 16.3333 103.356 16.5867 103.383 16.8C103.436 16.9867 103.596 17.2533 103.863 17.6C104.129 17.9467 104.449 18.3067 104.823 18.68C105.836 19.7467 106.343 20.6933 106.343 21.52C106.343 22.32 106.129 23.0267 105.703 23.64C104.796 24.9733 103.516 25.64 101.863 25.64C101.009 25.64 100.209 25.4667 99.4625 25.12C98.5292 24.6933 98.0625 24.04 98.0625 23.16C98.0625 22.8667 98.1425 22.4933 98.3025 22.04C98.4625 21.56 98.6892 21.2 98.9825 20.96C99.1425 20.88 99.2358 20.9067 99.2625 21.04C99.0758 21.6 98.9825 22.0667 98.9825 22.44C98.9825 23.2667 99.5558 24.0267 100.702 24.72C101.023 24.9333 101.369 25.04 101.743 25.04C103.049 25.04 103.889 24.8133 104.263 24.36C104.663 23.88 104.863 23.3067 104.863 22.64C104.863 21.9733 104.436 21.1867 103.583 20.28C102.569 19.16 102.063 18.2133 102.063 17.44C101.743 17.8933 101.076 18.7467 100.063 20C99.8492 20.2933 99.7292 20.32 99.7025 20.08C99.6758 19.84 99.7825 19.5733 100.023 19.28C100.476 18.8 101.516 17.3467 103.143 14.92C103.836 14.1467 104.663 13.76 105.623 13.76C107.116 13.76 107.876 14.28 107.903 15.32C107.903 15.8533 107.716 16.4933 107.343 17.24C107.209 17.5067 107.049 17.64 106.863 17.64ZM111.999 14.04L113.239 14.08C114.279 12.6667 115.319 10.8133 116.359 8.52C116.599 8.49333 116.973 8.34667 117.479 8.08C117.986 7.78667 118.346 7.53333 118.559 7.32C118.799 7.08 118.946 6.96 118.999 6.96C119.079 6.96 119.119 7 119.119 7.08C119.119 7.13333 119.013 7.28 118.799 7.52C118.586 7.76 118.053 8.56 117.199 9.92C116.373 11.2533 115.613 12.64 114.919 14.08H118.159C118.426 14.08 118.573 14.12 118.599 14.2C118.626 14.28 118.533 14.36 118.319 14.44C118.133 14.4933 117.946 14.5467 117.759 14.6C117.599 14.6533 117.226 14.7067 116.639 14.76C115.333 14.84 114.519 15.1067 114.199 15.56C113.906 15.9867 113.386 17.1067 112.639 18.92C111.253 22.28 111.039 23.96 111.999 23.96C112.826 23.96 114.346 22.68 116.559 20.12L117.319 19.16C117.373 19.24 117.399 19.3733 117.399 19.56C117.399 19.72 117.253 20 116.959 20.4C114.506 23.5467 112.293 25.12 110.319 25.12C109.679 25.12 109.359 24.8667 109.359 24.36C109.359 23.72 109.879 22.36 110.919 20.28L113.079 15.44C110.359 18.7467 108.973 20.44 108.919 20.52C108.733 20.7867 108.639 20.76 108.639 20.44C108.639 20.2267 108.706 20.04 108.839 19.88C110.653 17.6133 111.906 16.0267 112.599 15.12C112.359 15.12 111.639 15.1867 110.439 15.32C110.173 15.32 110.266 15.1067 110.719 14.68C111.199 14.2533 111.533 14.04 111.719 14.04H111.999ZM126.449 15.44C126.449 16.88 125.729 18.64 124.289 20.72C123.729 21.4667 123.222 22.0533 122.769 22.48C124.529 22.48 126.156 21.4933 127.649 19.52C127.782 19.3867 127.849 19.44 127.849 19.68C127.849 19.8933 127.796 20.0667 127.689 20.2C126.329 22.0933 124.782 23.04 123.049 23.04C122.809 23.04 122.569 23.0267 122.329 23C120.836 24.3867 119.156 25.08 117.289 25.08C116.196 25.08 115.649 24.6133 115.649 23.68C115.649 22.16 116.382 20.3867 117.849 18.36C118.782 17.0267 119.916 15.9733 121.249 15.2C122.662 14.32 123.862 13.88 124.849 13.88C125.916 13.88 126.449 14.4 126.449 15.44ZM124.529 15.48C124.529 14.84 124.289 14.52 123.809 14.52C123.649 14.52 123.342 14.6133 122.889 14.8C122.436 14.96 121.862 15.4 121.169 16.12C120.502 16.8133 119.862 17.7067 119.249 18.8C118.102 20.6933 117.529 22.1067 117.529 23.04C117.529 23.9467 117.769 24.4 118.249 24.4C118.622 24.4 119.036 24.28 119.489 24.04C119.942 23.7733 120.302 23.5067 120.569 23.24C121.396 22.36 122.262 21.1733 123.169 19.68C124.076 18.16 124.529 16.76 124.529 15.48ZM141.475 14.48C140.675 14.72 139.755 15.96 138.715 18.2C137.702 20.4133 137.195 21.9333 137.195 22.76C137.195 23.56 137.395 23.96 137.795 23.96C138.275 23.96 139.062 23.5333 140.155 22.68C141.328 21.7733 142.382 20.7067 143.315 19.48C143.528 19.24 143.648 19.1067 143.675 19.08C143.755 19.24 143.782 19.4133 143.755 19.6C143.728 19.76 143.555 20.0267 143.235 20.4C140.888 23.5467 138.688 25.12 136.635 25.12C135.702 25.12 135.235 24.76 135.235 24.04C135.235 23.56 135.408 22.8267 135.755 21.84C136.102 20.8267 136.422 20.04 136.715 19.48C134.102 23.24 131.688 25.12 129.475 25.12C128.835 25.12 128.515 24.8667 128.515 24.36C128.515 23.72 129.035 22.36 130.075 20.28C130.315 19.8 130.635 19.1467 131.035 18.32C131.435 17.4933 131.702 16.9467 131.835 16.68C131.995 16.4133 132.075 16.2267 132.075 16.12C132.075 15.9867 132.035 15.92 131.955 15.92C131.768 15.92 131.248 16.3067 130.395 17.08C129.542 17.8533 128.555 19 127.435 20.52C127.248 20.7867 127.155 20.76 127.155 20.44C127.155 20.2267 127.222 20.04 127.355 19.88C128.448 18.4133 129.328 17.3067 129.995 16.56C130.688 15.7867 131.062 15.36 131.115 15.28C131.195 15.2 131.342 15.0667 131.555 14.88C131.795 14.6667 131.982 14.52 132.115 14.44C132.648 14.12 133.208 13.96 133.795 13.96C134.408 13.96 134.715 14.1867 134.715 14.64C134.715 14.9867 134.488 15.4933 134.035 16.16C133.582 16.8267 132.888 18.0667 131.955 19.88C131.048 21.6667 130.595 22.8 130.595 23.28C130.595 23.7333 130.782 23.96 131.155 23.96C131.662 23.96 132.462 23.44 133.555 22.4C135.235 20.8 136.968 18.2933 138.755 14.88C138.995 14.4533 139.155 14.24 139.235 14.24H139.795C140.648 14.24 141.315 14.12 141.795 13.88C141.822 13.8533 141.862 13.84 141.915 13.84C141.968 13.84 141.995 13.8933 141.995 14C141.995 14.2133 141.822 14.3733 141.475 14.48ZM153.338 17.08C153.338 15.8533 152.951 15.24 152.178 15.24C151.431 15.24 150.351 16.0533 148.938 17.68C147.551 19.28 146.498 21 145.778 22.84L144.938 25.08C144.778 25.08 144.458 25.16 143.978 25.32C143.498 25.48 143.245 25.56 143.218 25.56C143.085 25.56 143.071 25.44 143.178 25.2C143.311 24.96 143.538 24.44 143.858 23.64C144.205 22.84 144.618 21.8267 145.098 20.6C146.031 18.2533 146.658 16.7067 146.978 15.96C145.565 17.48 144.285 19 143.138 20.52C142.951 20.7867 142.858 20.76 142.858 20.44C142.858 20.2267 142.925 20.04 143.058 19.88C144.951 17.5333 146.405 15.6267 147.418 14.16C148.751 13.9733 149.525 13.7867 149.738 13.6C149.951 13.4133 150.085 13.32 150.138 13.32C150.191 13.32 150.218 13.3733 150.218 13.48C150.245 13.5867 150.178 13.7333 150.018 13.92C149.858 14.1067 148.965 15.6933 147.338 18.68C148.058 17.5867 148.965 16.5067 150.058 15.44C151.178 14.3733 152.125 13.84 152.898 13.84C153.698 13.84 154.218 14.1733 154.458 14.84C154.565 14.9733 154.618 15.12 154.618 15.28C154.618 15.44 154.591 15.6533 154.538 15.92C154.485 16.16 154.431 16.36 154.378 16.52C154.085 17.1867 153.871 17.5867 153.738 17.72C153.658 17.8533 153.525 17.9333 153.338 17.96C153.311 17.9333 153.285 17.9067 153.258 17.88C153.311 17.5867 153.338 17.32 153.338 17.08ZM166.357 19.08C166.41 19.1333 166.437 19.24 166.437 19.4C166.437 19.56 166.25 19.8933 165.877 20.4C163.503 23.5467 161.303 25.12 159.277 25.12C158.637 25.12 158.317 24.8667 158.317 24.36C158.317 23.4267 158.837 22.1467 159.877 20.52C158.943 21.5067 157.877 22.52 156.677 23.56C155.477 24.5733 154.357 25.08 153.317 25.08C152.837 25.08 152.597 24.7867 152.597 24.2C152.597 24.0667 152.61 23.9733 152.637 23.92C152.823 22.4 153.437 20.8 154.477 19.12C156.557 15.76 158.717 14.08 160.957 14.08H165.557C165.69 14.08 165.757 14.1333 165.757 14.24C165.757 14.4533 165.637 14.56 165.397 14.56C165.023 14.56 164.557 15 163.997 15.88C163.437 16.7333 162.69 18.0667 161.757 19.88C160.85 21.6667 160.397 22.8 160.397 23.28C160.397 23.7333 160.583 23.96 160.957 23.96C161.57 23.96 162.423 23.4267 163.517 22.36C164.103 21.7467 164.543 21.2667 164.837 20.92C165.13 20.5733 165.317 20.3467 165.397 20.24C165.503 20.1333 165.823 19.7467 166.357 19.08ZM162.077 15.36C162.077 14.8533 161.73 14.6 161.037 14.6C160.37 14.6 159.623 14.9867 158.797 15.76C157.97 16.5333 157.063 17.7867 156.077 19.52C155.117 21.2267 154.637 22.4667 154.637 23.24C154.637 23.56 154.743 23.72 154.957 23.72C155.73 23.72 157.103 22.5467 159.077 20.2C161.077 17.8267 162.077 16.2133 162.077 15.36ZM177.714 14.64C177.714 14.9867 177.488 15.48 177.034 16.12C176.608 16.76 175.954 17.9733 175.074 19.76C174.194 21.52 173.754 22.64 173.754 23.12C173.754 23.5733 173.941 23.8 174.314 23.8C174.714 23.8 175.221 23.56 175.834 23.08C176.474 22.5733 177.034 22.04 177.514 21.48C178.021 20.92 178.688 20.1333 179.514 19.12C179.568 19.2 179.594 19.32 179.594 19.48C179.594 19.64 179.421 19.9467 179.074 20.4C177.714 22.24 176.568 23.52 175.634 24.24C174.701 24.96 173.861 25.32 173.114 25.32C172.261 25.32 171.834 24.9067 171.834 24.08C171.834 23.2267 172.261 21.9467 173.114 20.24C173.994 18.5067 174.701 17.0533 175.234 15.88C175.501 15.32 175.314 15.2133 174.674 15.56C171.634 17.4533 169.274 20.6267 167.594 25.08C167.434 25.08 167.114 25.16 166.634 25.32C166.181 25.5067 165.914 25.6 165.834 25.6C165.728 25.6 165.728 25.4667 165.834 25.2C165.968 24.96 166.194 24.44 166.514 23.64C166.861 22.84 167.274 21.8267 167.754 20.6C168.688 18.2533 169.314 16.7067 169.634 15.96C168.221 17.48 166.941 19 165.794 20.52C165.608 20.7867 165.514 20.76 165.514 20.44C165.514 20.2267 165.581 20.04 165.714 19.88C167.608 17.5333 169.061 15.6267 170.074 14.16C171.408 13.9733 172.181 13.7867 172.394 13.6C172.608 13.4133 172.741 13.32 172.794 13.32C172.848 13.32 172.874 13.3733 172.874 13.48C172.901 13.5867 172.821 13.7467 172.634 13.96C172.474 14.1467 171.434 16.0267 169.514 19.6C170.794 17.92 172.288 16.44 173.994 15.16C175.088 14.36 175.981 13.96 176.674 13.96C177.368 13.96 177.714 14.1867 177.714 14.64ZM182.078 14.04L183.317 14.08C184.358 12.6667 185.398 10.8133 186.438 8.52C186.678 8.49333 187.051 8.34667 187.558 8.08C188.064 7.78667 188.424 7.53333 188.638 7.32C188.878 7.08 189.024 6.96 189.078 6.96C189.158 6.96 189.197 7 189.197 7.08C189.197 7.13333 189.091 7.28 188.878 7.52C188.664 7.76 188.131 8.56 187.278 9.92C186.451 11.2533 185.691 12.64 184.998 14.08H188.238C188.504 14.08 188.651 14.12 188.678 14.2C188.704 14.28 188.611 14.36 188.398 14.44C188.211 14.4933 188.024 14.5467 187.838 14.6C187.678 14.6533 187.304 14.7067 186.718 14.76C185.411 14.84 184.598 15.1067 184.278 15.56C183.984 15.9867 183.464 17.1067 182.717 18.92C181.331 22.28 181.118 23.96 182.078 23.96C182.904 23.96 184.424 22.68 186.638 20.12L187.398 19.16C187.451 19.24 187.478 19.3733 187.478 19.56C187.478 19.72 187.331 20 187.038 20.4C184.584 23.5467 182.371 25.12 180.398 25.12C179.758 25.12 179.438 24.8667 179.438 24.36C179.438 23.72 179.958 22.36 180.998 20.28L183.158 15.44C180.438 18.7467 179.051 20.44 178.998 20.52C178.811 20.7867 178.718 20.76 178.718 20.44C178.718 20.2267 178.784 20.04 178.918 19.88C180.731 17.6133 181.984 16.0267 182.678 15.12C182.438 15.12 181.718 15.1867 180.518 15.32C180.251 15.32 180.344 15.1067 180.798 14.68C181.278 14.2533 181.611 14.04 181.798 14.04H182.078Z" fill="black"/>
</svg>
